<?xml version="1.0" encoding="UTF-8" standalone="no"?><!DOCTYPE svg PUBLIC "-//W3C//DTD SVG 1.1//EN" "http://www.w3.org/Graphics/SVG/1.1/DTD/svg11.dtd"><!-- Generated by graphviz version 2.40.1 (20161225.0304)
 --><!-- Title: G Pages: 1 --><svg xmlns="http://www.w3.org/2000/svg" xmlns:xlink="http://www.w3.org/1999/xlink" width="314pt" height="58pt" viewBox="0.00 0.00 314.08 58.47">
<g id="graph0" class="graph" transform="scale(1 1) rotate(0) translate(4 54.4666)">
<title>G</title>
<polygon fill="#ffffff" stroke="transparent" points="-4,4 -4,-54.4666 310.0808,-54.4666 310.0808,4 -4,4"/>
<!-- S0 -->
<g id="node1" class="node">
<title>S0</title>
<ellipse fill="none" stroke="#000000" cx="21.2333" cy="-25.2333" rx="21.4691" ry="21.4691"/>
<text text-anchor="middle" x="21.2333" y="-21.0333" font-family="Times,serif" font-size="14.00" fill="#000000">S0</text>
</g>
<!-- S1 -->
<g id="node2" class="node">
<title>S1</title>
<ellipse fill="none" stroke="#000000" cx="105.9144" cy="-25.2333" rx="21.4691" ry="21.4691"/>
<text text-anchor="middle" x="105.9144" y="-21.0333" font-family="Times,serif" font-size="14.00" fill="#000000">S1</text>
</g>
<!-- S0&#45;&gt;S1 -->
<g id="edge1" class="edge">
<title>S0-&gt;S1</title>
<path fill="none" stroke="#000000" d="M42.6019,-25.2333C52.2297,-25.2333 63.7929,-25.2333 74.3879,-25.2333"/>
<polygon fill="#000000" stroke="#000000" points="74.5527,-28.7334 84.5526,-25.2333 74.5526,-21.7334 74.5527,-28.7334"/>
<text text-anchor="middle" x="63.5739" y="-29.4333" font-family="Times,serif" font-size="14.00" fill="#000000">a</text>
</g>
<!-- S2 -->
<g id="node3" class="node">
<title>S2</title>
<ellipse fill="none" stroke="#000000" cx="191.381" cy="-25.2333" rx="21.4691" ry="21.4691"/>
<text text-anchor="middle" x="191.381" y="-21.0333" font-family="Times,serif" font-size="14.00" fill="#000000">S2</text>
</g>
<!-- S1&#45;&gt;S2 -->
<g id="edge2" class="edge">
<title>S1-&gt;S2</title>
<path fill="none" stroke="#000000" d="M127.4812,-25.2333C137.2725,-25.2333 149.0471,-25.2333 159.8068,-25.2333"/>
<polygon fill="#000000" stroke="#000000" points="160.1172,-28.7334 170.1171,-25.2333 160.1171,-21.7334 160.1172,-28.7334"/>
<text text-anchor="middle" x="148.6477" y="-29.4333" font-family="Times,serif" font-size="14.00" fill="#000000">#</text>
</g>
<!-- S3 -->
<g id="node4" class="node">
<title>S3</title>
<ellipse fill="none" stroke="#000000" cx="280.8475" cy="-25.2333" rx="21.4314" ry="21.4314"/>
<ellipse fill="none" stroke="#000000" cx="280.8475" cy="-25.2333" rx="25.4687" ry="25.4687"/>
<text text-anchor="middle" x="280.8475" y="-21.0333" font-family="Times,serif" font-size="14.00" fill="#000000">S3</text>
</g>
<!-- S2&#45;&gt;S3 -->
<g id="edge3" class="edge">
<title>S2-&gt;S3</title>
<path fill="none" stroke="#000000" d="M213.0383,-25.2333C222.7574,-25.2333 234.4779,-25.2333 245.4209,-25.2333"/>
<polygon fill="#000000" stroke="#000000" points="245.5837,-28.7334 255.5837,-25.2333 245.5836,-21.7334 245.5837,-28.7334"/>
<text text-anchor="middle" x="234.1143" y="-29.4333" font-family="Times,serif" font-size="14.00" fill="#000000">b</text>
</g>
</g>
</svg>