<?xml version="1.0" encoding="UTF-8" standalone="no"?><!DOCTYPE svg PUBLIC "-//W3C//DTD SVG 1.1//EN" "http://www.w3.org/Graphics/SVG/1.1/DTD/svg11.dtd"><!-- Generated by graphviz version 2.40.1 (20161225.0304)
 --><!-- Title: G Pages: 1 --><svg xmlns="http://www.w3.org/2000/svg" xmlns:xlink="http://www.w3.org/1999/xlink" width="315pt" height="110pt" viewBox="0.00 0.00 315.24 110.47">
<g id="graph0" class="graph" transform="scale(1 1) rotate(0) translate(4 106.4666)">
<title>G</title>
<polygon fill="#ffffff" stroke="transparent" points="-4,4 -4,-106.4666 311.2414,-106.4666 311.2414,4 -4,4"/>
<!-- S0 -->
<g id="node1" class="node">
<title>S0</title>
<ellipse fill="none" stroke="#000000" cx="21.2333" cy="-51.2333" rx="21.4691" ry="21.4691"/>
<text text-anchor="middle" x="21.2333" y="-47.0333" font-family="Times,serif" font-size="14.00" fill="#000000">S0</text>
</g>
<!-- S1 -->
<g id="node2" class="node">
<title>S1</title>
<ellipse fill="none" stroke="#000000" cx="105.9144" cy="-51.2333" rx="21.4691" ry="21.4691"/>
<text text-anchor="middle" x="105.9144" y="-47.0333" font-family="Times,serif" font-size="14.00" fill="#000000">S1</text>
</g>
<!-- S0&#45;&gt;S1 -->
<g id="edge1" class="edge">
<title>S0-&gt;S1</title>
<path fill="none" stroke="#000000" d="M42.6019,-51.2333C52.2297,-51.2333 63.7929,-51.2333 74.3879,-51.2333"/>
<polygon fill="#000000" stroke="#000000" points="74.5527,-54.7334 84.5526,-51.2333 74.5526,-47.7334 74.5527,-54.7334"/>
<text text-anchor="middle" x="63.5739" y="-55.4333" font-family="Times,serif" font-size="14.00" fill="#000000">a</text>
</g>
<!-- S2 -->
<g id="node3" class="node">
<title>S2</title>
<ellipse fill="none" stroke="#000000" cx="192.5416" cy="-81.2333" rx="21.4691" ry="21.4691"/>
<text text-anchor="middle" x="192.5416" y="-77.0333" font-family="Times,serif" font-size="14.00" fill="#000000">S2</text>
</g>
<!-- S1&#45;&gt;S2 -->
<g id="edge2" class="edge">
<title>S1-&gt;S2</title>
<path fill="none" stroke="#000000" d="M126.0062,-58.1913C136.8615,-61.9506 150.4798,-66.6668 162.5636,-70.8515"/>
<polygon fill="#000000" stroke="#000000" points="161.6639,-74.2439 172.2587,-74.2091 163.9547,-67.6293 161.6639,-74.2439"/>
<text text-anchor="middle" x="149.228" y="-70.4333" font-family="Times,serif" font-size="14.00" fill="#000000">ε</text>
</g>
<!-- S3 -->
<g id="node4" class="node">
<title>S3</title>
<ellipse fill="none" stroke="#000000" cx="192.5416" cy="-21.2333" rx="21.4691" ry="21.4691"/>
<text text-anchor="middle" x="192.5416" y="-17.0333" font-family="Times,serif" font-size="14.00" fill="#000000">S3</text>
</g>
<!-- S1&#45;&gt;S3 -->
<g id="edge3" class="edge">
<title>S1-&gt;S3</title>
<path fill="none" stroke="#000000" d="M126.0062,-44.2753C136.8615,-40.5159 150.4798,-35.7998 162.5636,-31.615"/>
<polygon fill="#000000" stroke="#000000" points="163.9547,-34.8373 172.2587,-28.2575 161.6639,-28.2227 163.9547,-34.8373"/>
<text text-anchor="middle" x="149.228" y="-41.4333" font-family="Times,serif" font-size="14.00" fill="#000000">ε</text>
</g>
<!-- S4 -->
<g id="node5" class="node">
<title>S4</title>
<ellipse fill="none" stroke="#000000" cx="282.0081" cy="-51.2333" rx="21.4314" ry="21.4314"/>
<ellipse fill="none" stroke="#000000" cx="282.0081" cy="-51.2333" rx="25.4687" ry="25.4687"/>
<text text-anchor="middle" x="282.0081" y="-47.0333" font-family="Times,serif" font-size="14.00" fill="#000000">S4</text>
</g>
<!-- S2&#45;&gt;S4 -->
<g id="edge4" class="edge">
<title>S2-&gt;S4</title>
<path fill="none" stroke="#000000" d="M212.8429,-74.4258C223.3151,-70.9143 236.3642,-66.5386 248.2973,-62.5372"/>
<polygon fill="#000000" stroke="#000000" points="249.6092,-65.7889 257.9776,-59.2912 247.3837,-59.1521 249.6092,-65.7889"/>
<text text-anchor="middle" x="235.2749" y="-71.4333" font-family="Times,serif" font-size="14.00" fill="#000000">b</text>
</g>
<!-- S3&#45;&gt;S4 -->
<g id="edge5" class="edge">
<title>S3-&gt;S4</title>
<path fill="none" stroke="#000000" d="M212.8429,-28.0407C223.3151,-31.5523 236.3642,-35.9279 248.2973,-39.9293"/>
<polygon fill="#000000" stroke="#000000" points="247.3837,-43.3144 257.9776,-43.1753 249.6092,-36.6776 247.3837,-43.3144"/>
<text text-anchor="middle" x="235.2749" y="-40.4333" font-family="Times,serif" font-size="14.00" fill="#000000">c</text>
</g>
</g>
</svg>