<?xml version="1.0" encoding="UTF-8" standalone="no"?><!DOCTYPE svg PUBLIC "-//W3C//DTD SVG 1.1//EN" "http://www.w3.org/Graphics/SVG/1.1/DTD/svg11.dtd"><!-- Generated by graphviz version 2.40.1 (20161225.0304)
 --><!-- Title: G Pages: 1 --><svg xmlns="http://www.w3.org/2000/svg" xmlns:xlink="http://www.w3.org/1999/xlink" width="229pt" height="126pt" viewBox="0.00 0.00 228.61 126.47">
<g id="graph0" class="graph" transform="scale(1 1) rotate(0) translate(4 122.4666)">
<title>G</title>
<polygon fill="#ffffff" stroke="transparent" points="-4,4 -4,-122.4666 224.6143,-122.4666 224.6143,4 -4,4"/>
<!-- S0 -->
<g id="node1" class="node">
<title>S0</title>
<ellipse fill="none" stroke="#000000" cx="21.2333" cy="-59.2333" rx="21.4691" ry="21.4691"/>
<text text-anchor="middle" x="21.2333" y="-55.0333" font-family="Times,serif" font-size="14.00" fill="#000000">S0</text>
</g>
<!-- S1 -->
<g id="node2" class="node">
<title>S1</title>
<ellipse fill="none" stroke="#000000" cx="105.9144" cy="-59.2333" rx="21.4691" ry="21.4691"/>
<text text-anchor="middle" x="105.9144" y="-55.0333" font-family="Times,serif" font-size="14.00" fill="#000000">S1</text>
</g>
<!-- S0&#45;&gt;S1 -->
<g id="edge1" class="edge">
<title>S0-&gt;S1</title>
<path fill="none" stroke="#000000" d="M42.6019,-59.2333C52.2297,-59.2333 63.7929,-59.2333 74.3879,-59.2333"/>
<polygon fill="#000000" stroke="#000000" points="74.5527,-62.7334 84.5526,-59.2333 74.5526,-55.7334 74.5527,-62.7334"/>
<text text-anchor="middle" x="63.5739" y="-63.4333" font-family="Times,serif" font-size="14.00" fill="#000000">a</text>
</g>
<!-- S2 -->
<g id="node3" class="node">
<title>S2</title>
<ellipse fill="none" stroke="#000000" cx="195.381" cy="-93.2333" rx="21.4314" ry="21.4314"/>
<ellipse fill="none" stroke="#000000" cx="195.381" cy="-93.2333" rx="25.4687" ry="25.4687"/>
<text text-anchor="middle" x="195.381" y="-89.0333" font-family="Times,serif" font-size="14.00" fill="#000000">S2</text>
</g>
<!-- S1&#45;&gt;S2 -->
<g id="edge2" class="edge">
<title>S1-&gt;S2</title>
<path fill="none" stroke="#000000" d="M125.77,-66.779C136.4938,-70.8544 150.0145,-75.9926 162.2811,-80.6543"/>
<polygon fill="#000000" stroke="#000000" points="161.1812,-83.9805 171.7723,-84.2613 163.6679,-77.4371 161.1812,-83.9805"/>
<text text-anchor="middle" x="148.6477" y="-80.4333" font-family="Times,serif" font-size="14.00" fill="#000000">b</text>
</g>
<!-- S3 -->
<g id="node4" class="node">
<title>S3</title>
<ellipse fill="none" stroke="#000000" cx="195.381" cy="-25.2333" rx="21.4314" ry="21.4314"/>
<ellipse fill="none" stroke="#000000" cx="195.381" cy="-25.2333" rx="25.4687" ry="25.4687"/>
<text text-anchor="middle" x="195.381" y="-21.0333" font-family="Times,serif" font-size="14.00" fill="#000000">S3</text>
</g>
<!-- S1&#45;&gt;S3 -->
<g id="edge3" class="edge">
<title>S1-&gt;S3</title>
<path fill="none" stroke="#000000" d="M125.77,-51.6876C136.4938,-47.6122 150.0145,-42.4739 162.2811,-37.8122"/>
<polygon fill="#000000" stroke="#000000" points="163.6679,-41.0295 171.7723,-34.2053 161.1812,-34.4861 163.6679,-41.0295"/>
<text text-anchor="middle" x="148.6477" y="-49.4333" font-family="Times,serif" font-size="14.00" fill="#000000">c</text>
</g>
</g>
</svg>