<?xml version="1.0" encoding="UTF-8" standalone="no"?><!DOCTYPE svg PUBLIC "-//W3C//DTD SVG 1.1//EN" "http://www.w3.org/Graphics/SVG/1.1/DTD/svg11.dtd"><!-- Generated by graphviz version 2.40.1 (20161225.0304)
 --><!-- Title: DFA Pages: 1 --><svg xmlns="http://www.w3.org/2000/svg" xmlns:xlink="http://www.w3.org/1999/xlink" width="229pt" height="58pt" viewBox="0.00 0.00 228.61 58.47">
<g id="graph0" class="graph" transform="scale(1 1) rotate(0) translate(4 54.4666)">
<title>DFA</title>
<polygon fill="#ffffff" stroke="transparent" points="-4,4 -4,-54.4666 224.6143,-54.4666 224.6143,4 -4,4"/>
<!-- q0 -->
<g id="node1" class="node">
<title>q0</title>
<ellipse fill="none" stroke="#000000" cx="21.2333" cy="-25.2333" rx="21.4691" ry="21.4691"/>
<text text-anchor="middle" x="21.2333" y="-21.0333" font-family="Times,serif" font-size="14.00" fill="#000000">S0</text>
</g>
<!-- q1 -->
<g id="node2" class="node">
<title>q1</title>
<ellipse fill="none" stroke="#000000" cx="105.9144" cy="-25.2333" rx="21.4691" ry="21.4691"/>
<text text-anchor="middle" x="105.9144" y="-21.0333" font-family="Times,serif" font-size="14.00" fill="#000000">S1</text>
</g>
<!-- q0&#45;&gt;q1 -->
<g id="edge1" class="edge">
<title>q0-&gt;q1</title>
<path fill="none" stroke="#000000" d="M42.6019,-25.2333C52.2297,-25.2333 63.7929,-25.2333 74.3879,-25.2333"/>
<polygon fill="#000000" stroke="#000000" points="74.5527,-28.7334 84.5526,-25.2333 74.5526,-21.7334 74.5527,-28.7334"/>
<text text-anchor="middle" x="63.5739" y="-29.4333" font-family="Times,serif" font-size="14.00" fill="#000000">a</text>
</g>
<!-- q2 -->
<g id="node3" class="node">
<title>q2</title>
<ellipse fill="none" stroke="#000000" cx="195.381" cy="-25.2333" rx="21.4314" ry="21.4314"/>
<ellipse fill="none" stroke="#000000" cx="195.381" cy="-25.2333" rx="25.4687" ry="25.4687"/>
<text text-anchor="middle" x="195.381" y="-21.0333" font-family="Times,serif" font-size="14.00" fill="#000000">S2</text>
</g>
<!-- q1&#45;&gt;q2 -->
<g id="edge2" class="edge">
<title>q1-&gt;q2</title>
<path fill="none" stroke="#000000" d="M127.5718,-25.2333C137.2909,-25.2333 149.0113,-25.2333 159.9543,-25.2333"/>
<polygon fill="#000000" stroke="#000000" points="160.1171,-28.7334 170.1171,-25.2333 160.1171,-21.7334 160.1171,-28.7334"/>
<text text-anchor="middle" x="148.6477" y="-29.4333" font-family="Times,serif" font-size="14.00" fill="#000000">b</text>
</g>
<!-- q1&#45;&gt;q2 -->
<g id="edge3" class="edge">
<title>q1-&gt;q2</title>
<path fill="none" stroke="#000000" d="M123.9227,-13.3276C130.348,-9.7321 137.8158,-6.2566 145.1477,-4.4333 151.9176,-2.7497 158.9653,-3.7718 165.5662,-6.0776"/>
<polygon fill="#000000" stroke="#000000" points="164.2746,-9.3338 174.8332,-10.2089 167.1248,-2.9404 164.2746,-9.3338"/>
<text text-anchor="middle" x="148.6477" y="-8.4333" font-family="Times,serif" font-size="14.00" fill="#000000">c</text>
</g>
</g>
</svg>