<?xml version="1.0" encoding="UTF-8" standalone="no"?><!DOCTYPE svg PUBLIC "-//W3C//DTD SVG 1.1//EN" "http://www.w3.org/Graphics/SVG/1.1/DTD/svg11.dtd"><!-- Generated by graphviz version 2.40.1 (20161225.0304)
 --><!-- Title: %0 Pages: 1 --><svg xmlns="http://www.w3.org/2000/svg" xmlns:xlink="http://www.w3.org/1999/xlink" width="144pt" height="126pt" viewBox="0.00 0.00 143.93 126.47">
<g id="graph0" class="graph" transform="scale(1 1) rotate(0) translate(4 122.4666)">
<title>%0</title>
<polygon fill="#ffffff" stroke="transparent" points="-4,4 -4,-122.4666 139.9331,-122.4666 139.9331,4 -4,4"/>
<!-- S3 -->
<g id="node1" class="node">
<title>S3</title>
<ellipse fill="none" stroke="#000000" cx="110.6998" cy="-25.2333" rx="21.4314" ry="21.4314"/>
<ellipse fill="none" stroke="#000000" cx="110.6998" cy="-25.2333" rx="25.4687" ry="25.4687"/>
<text text-anchor="middle" x="110.6998" y="-21.0333" font-family="Times,serif" font-size="14.00" fill="#000000">S3</text>
</g>
<!-- S2 -->
<g id="node2" class="node">
<title>S2</title>
<ellipse fill="none" stroke="#000000" cx="21.2333" cy="-25.2333" rx="21.4691" ry="21.4691"/>
<text text-anchor="middle" x="21.2333" y="-21.0333" font-family="Times,serif" font-size="14.00" fill="#000000">S2</text>
</g>
<!-- S2&#45;&gt;S3 -->
<g id="edge1" class="edge">
<title>S2-&gt;S3</title>
<path fill="none" stroke="#000000" d="M42.8906,-25.2333C52.6097,-25.2333 64.3302,-25.2333 75.2732,-25.2333"/>
<polygon fill="#000000" stroke="#000000" points="75.436,-28.7334 85.436,-25.2333 75.4359,-21.7334 75.436,-28.7334"/>
<text text-anchor="middle" x="63.9666" y="-29.4333" font-family="Times,serif" font-size="14.00" fill="#000000">b</text>
</g>
<!-- S1 -->
<g id="node3" class="node">
<title>S1</title>
<ellipse fill="none" stroke="#000000" cx="110.6998" cy="-93.2333" rx="21.4314" ry="21.4314"/>
<ellipse fill="none" stroke="#000000" cx="110.6998" cy="-93.2333" rx="25.4687" ry="25.4687"/>
<text text-anchor="middle" x="110.6998" y="-89.0333" font-family="Times,serif" font-size="14.00" fill="#000000">S1</text>
</g>
<!-- S0 -->
<g id="node4" class="node">
<title>S0</title>
<ellipse fill="none" stroke="#000000" cx="21.2333" cy="-93.2333" rx="21.4691" ry="21.4691"/>
<text text-anchor="middle" x="21.2333" y="-89.0333" font-family="Times,serif" font-size="14.00" fill="#000000">S0</text>
</g>
<!-- S0&#45;&gt;S1 -->
<g id="edge2" class="edge">
<title>S0-&gt;S1</title>
<path fill="none" stroke="#000000" d="M42.8906,-93.2333C52.6097,-93.2333 64.3302,-93.2333 75.2732,-93.2333"/>
<polygon fill="#000000" stroke="#000000" points="75.436,-96.7334 85.436,-93.2333 75.4359,-89.7334 75.436,-96.7334"/>
<text text-anchor="middle" x="63.9666" y="-97.4333" font-family="Times,serif" font-size="14.00" fill="#000000">a</text>
</g>
</g>
</svg>