<?xml version="1.0" encoding="UTF-8" standalone="no"?><!DOCTYPE svg PUBLIC "-//W3C//DTD SVG 1.1//EN" "http://www.w3.org/Graphics/SVG/1.1/DTD/svg11.dtd"><!-- Generated by graphviz version 2.40.1 (20161225.0304)
 --><!-- Title: %0 Pages: 1 --><svg xmlns="http://www.w3.org/2000/svg" xmlns:xlink="http://www.w3.org/1999/xlink" width="317pt" height="110pt" viewBox="0.00 0.00 317.19 110.47">
<g id="graph0" class="graph" transform="scale(1 1) rotate(0) translate(4 106.4666)">
<title>%0</title>
<polygon fill="#ffffff" stroke="transparent" points="-4,4 -4,-106.4666 313.1874,-106.4666 313.1874,4 -4,4"/>
<!-- S5 -->
<g id="node1" class="node">
<title>S5</title>
<ellipse fill="none" stroke="#000000" cx="283.9541" cy="-53.2333" rx="21.4314" ry="21.4314"/>
<ellipse fill="none" stroke="#000000" cx="283.9541" cy="-53.2333" rx="25.4687" ry="25.4687"/>
<text text-anchor="middle" x="283.9541" y="-49.0333" font-family="Times,serif" font-size="14.00" fill="#000000">S5</text>
</g>
<!-- S1 -->
<g id="node2" class="node">
<title>S1</title>
<ellipse fill="none" stroke="#000000" cx="107.8604" cy="-81.2333" rx="21.4691" ry="21.4691"/>
<text text-anchor="middle" x="107.8604" y="-77.0333" font-family="Times,serif" font-size="14.00" fill="#000000">S1</text>
</g>
<!-- S2 -->
<g id="node3" class="node">
<title>S2</title>
<ellipse fill="none" stroke="#000000" cx="193.327" cy="-81.2333" rx="21.4691" ry="21.4691"/>
<text text-anchor="middle" x="193.327" y="-77.0333" font-family="Times,serif" font-size="14.00" fill="#000000">S2</text>
</g>
<!-- S1&#45;&gt;S2 -->
<g id="edge1" class="edge">
<title>S1-&gt;S2</title>
<path fill="none" stroke="#000000" d="M129.4272,-81.2333C139.2185,-81.2333 150.9931,-81.2333 161.7528,-81.2333"/>
<polygon fill="#000000" stroke="#000000" points="162.0632,-84.7334 172.0631,-81.2333 162.0631,-77.7334 162.0632,-84.7334"/>
<text text-anchor="middle" x="150.5937" y="-85.4333" font-family="Times,serif" font-size="14.00" fill="#000000">a</text>
</g>
<!-- S2&#45;&gt;S5 -->
<g id="edge3" class="edge">
<title>S2-&gt;S5</title>
<path fill="none" stroke="#000000" d="M213.8917,-74.8796C224.4997,-71.6022 237.7181,-67.5183 249.806,-63.7836"/>
<polygon fill="#000000" stroke="#000000" points="251.0907,-67.05 259.6119,-60.754 249.0243,-60.362 251.0907,-67.05"/>
<text text-anchor="middle" x="236.6406" y="-73.4333" font-family="Times,serif" font-size="14.00" fill="#000000">ε</text>
</g>
<!-- S3 -->
<g id="node4" class="node">
<title>S3</title>
<ellipse fill="none" stroke="#000000" cx="107.8604" cy="-21.2333" rx="21.4691" ry="21.4691"/>
<text text-anchor="middle" x="107.8604" y="-17.0333" font-family="Times,serif" font-size="14.00" fill="#000000">S3</text>
</g>
<!-- S4 -->
<g id="node5" class="node">
<title>S4</title>
<ellipse fill="none" stroke="#000000" cx="193.327" cy="-21.2333" rx="21.4691" ry="21.4691"/>
<text text-anchor="middle" x="193.327" y="-17.0333" font-family="Times,serif" font-size="14.00" fill="#000000">S4</text>
</g>
<!-- S3&#45;&gt;S4 -->
<g id="edge2" class="edge">
<title>S3-&gt;S4</title>
<path fill="none" stroke="#000000" d="M129.4272,-21.2333C139.2185,-21.2333 150.9931,-21.2333 161.7528,-21.2333"/>
<polygon fill="#000000" stroke="#000000" points="162.0632,-24.7334 172.0631,-21.2333 162.0631,-17.7334 162.0632,-24.7334"/>
<text text-anchor="middle" x="150.5937" y="-25.4333" font-family="Times,serif" font-size="14.00" fill="#000000">b</text>
</g>
<!-- S4&#45;&gt;S5 -->
<g id="edge4" class="edge">
<title>S4-&gt;S5</title>
<path fill="none" stroke="#000000" d="M213.4401,-28.3351C224.303,-32.1708 237.9992,-37.0068 250.4248,-41.3942"/>
<polygon fill="#000000" stroke="#000000" points="249.4444,-44.7598 260.0392,-44.789 251.7751,-38.1592 249.4444,-44.7598"/>
<text text-anchor="middle" x="236.6406" y="-41.4333" font-family="Times,serif" font-size="14.00" fill="#000000">ε</text>
</g>
<!-- S0 -->
<g id="node6" class="node">
<title>S0</title>
<ellipse fill="none" stroke="#000000" cx="21.2333" cy="-51.2333" rx="21.4691" ry="21.4691"/>
<text text-anchor="middle" x="21.2333" y="-47.0333" font-family="Times,serif" font-size="14.00" fill="#000000">S0</text>
</g>
<!-- S0&#45;&gt;S1 -->
<g id="edge5" class="edge">
<title>S0-&gt;S1</title>
<path fill="none" stroke="#000000" d="M41.325,-58.1913C52.1804,-61.9506 65.7986,-66.6668 77.8824,-70.8515"/>
<polygon fill="#000000" stroke="#000000" points="76.9828,-74.2439 87.5776,-74.2091 79.2735,-67.6293 76.9828,-74.2439"/>
<text text-anchor="middle" x="64.5469" y="-71.4333" font-family="Times,serif" font-size="14.00" fill="#000000">ε</text>
</g>
<!-- S0&#45;&gt;S3 -->
<g id="edge6" class="edge">
<title>S0-&gt;S3</title>
<path fill="none" stroke="#000000" d="M41.325,-44.2753C52.1804,-40.5159 65.7986,-35.7998 77.8824,-31.615"/>
<polygon fill="#000000" stroke="#000000" points="79.2735,-34.8373 87.5776,-28.2575 76.9828,-28.2227 79.2735,-34.8373"/>
<text text-anchor="middle" x="64.5469" y="-41.4333" font-family="Times,serif" font-size="14.00" fill="#000000">ε</text>
</g>
</g>
</svg>