<?xml version="1.0" encoding="UTF-8" standalone="no"?><!DOCTYPE svg PUBLIC "-//W3C//DTD SVG 1.1//EN" "http://www.w3.org/Graphics/SVG/1.1/DTD/svg11.dtd"><!-- Generated by graphviz version 2.40.1 (20161225.0304)
 --><!-- Title: %0 Pages: 1 --><svg xmlns="http://www.w3.org/2000/svg" xmlns:xlink="http://www.w3.org/1999/xlink" width="526pt" height="159pt" viewBox="0.00 0.00 525.91 159.47">
<g id="graph0" class="graph" transform="scale(1 1) rotate(0) translate(4 155.4666)">
<title>%0</title>
<polygon fill="#ffffff" stroke="transparent" points="-4,4 -4,-155.4666 521.9083,-155.4666 521.9083,4 -4,4"/>
<!-- S9 -->
<g id="node1" class="node">
<title>S9</title>
<ellipse fill="none" stroke="#000000" cx="492.675" cy="-41.2333" rx="21.4314" ry="21.4314"/>
<ellipse fill="none" stroke="#000000" cx="492.675" cy="-41.2333" rx="25.4687" ry="25.4687"/>
<text text-anchor="middle" x="492.675" y="-37.0333" font-family="Times,serif" font-size="14.00" fill="#000000">S9</text>
</g>
<!-- S2 -->
<g id="node2" class="node">
<title>S2</title>
<ellipse fill="none" stroke="#000000" cx="194.4876" cy="-130.2333" rx="21.4691" ry="21.4691"/>
<text text-anchor="middle" x="194.4876" y="-126.0333" font-family="Times,serif" font-size="14.00" fill="#000000">S2</text>
</g>
<!-- S3 -->
<g id="node3" class="node">
<title>S3</title>
<ellipse fill="none" stroke="#000000" cx="315.4207" cy="-130.2333" rx="21.4691" ry="21.4691"/>
<text text-anchor="middle" x="315.4207" y="-126.0333" font-family="Times,serif" font-size="14.00" fill="#000000">S3</text>
</g>
<!-- S2&#45;&gt;S3 -->
<g id="edge1" class="edge">
<title>S2-&gt;S3</title>
<path fill="none" stroke="#000000" d="M215.8296,-130.2333C234.624,-130.2333 262.2559,-130.2333 283.6491,-130.2333"/>
<polygon fill="#000000" stroke="#000000" points="283.8853,-133.7334 293.8852,-130.2333 283.8852,-126.7334 283.8853,-133.7334"/>
<text text-anchor="middle" x="254.9541" y="-134.4333" font-family="Times,serif" font-size="14.00" fill="#000000">a</text>
</g>
<!-- S6 -->
<g id="node6" class="node">
<title>S6</title>
<ellipse fill="none" stroke="#000000" cx="402.0478" cy="-70.2333" rx="21.4691" ry="21.4691"/>
<text text-anchor="middle" x="402.0478" y="-66.0333" font-family="Times,serif" font-size="14.00" fill="#000000">S6</text>
</g>
<!-- S3&#45;&gt;S6 -->
<g id="edge3" class="edge">
<title>S3-&gt;S6</title>
<path fill="none" stroke="#000000" d="M332.951,-118.0914C345.3972,-109.4708 362.3093,-97.7571 376.2863,-88.0763"/>
<polygon fill="#000000" stroke="#000000" points="378.3157,-90.9283 384.5436,-82.3571 374.33,-85.1738 378.3157,-90.9283"/>
<text text-anchor="middle" x="358.7343" y="-105.4333" font-family="Times,serif" font-size="14.00" fill="#000000">ε</text>
</g>
<!-- S4 -->
<g id="node4" class="node">
<title>S4</title>
<ellipse fill="none" stroke="#000000" cx="194.4876" cy="-70.2333" rx="21.4691" ry="21.4691"/>
<text text-anchor="middle" x="194.4876" y="-66.0333" font-family="Times,serif" font-size="14.00" fill="#000000">S4</text>
</g>
<!-- S5 -->
<g id="node5" class="node">
<title>S5</title>
<ellipse fill="none" stroke="#000000" cx="315.4207" cy="-70.2333" rx="21.4691" ry="21.4691"/>
<text text-anchor="middle" x="315.4207" y="-66.0333" font-family="Times,serif" font-size="14.00" fill="#000000">S5</text>
</g>
<!-- S4&#45;&gt;S5 -->
<g id="edge2" class="edge">
<title>S4-&gt;S5</title>
<path fill="none" stroke="#000000" d="M215.8296,-70.2333C234.624,-70.2333 262.2559,-70.2333 283.6491,-70.2333"/>
<polygon fill="#000000" stroke="#000000" points="283.8853,-73.7334 293.8852,-70.2333 283.8852,-66.7334 283.8853,-73.7334"/>
<text text-anchor="middle" x="254.9541" y="-74.4333" font-family="Times,serif" font-size="14.00" fill="#000000">b</text>
</g>
<!-- S5&#45;&gt;S6 -->
<g id="edge4" class="edge">
<title>S5-&gt;S6</title>
<path fill="none" stroke="#000000" d="M336.8341,-70.2333C346.9338,-70.2333 359.1893,-70.2333 370.3377,-70.2333"/>
<polygon fill="#000000" stroke="#000000" points="370.5805,-73.7334 380.5805,-70.2333 370.5805,-66.7334 370.5805,-73.7334"/>
<text text-anchor="middle" x="358.7343" y="-74.4333" font-family="Times,serif" font-size="14.00" fill="#000000">ε</text>
</g>
<!-- S6&#45;&gt;S9 -->
<g id="edge10" class="edge">
<title>S6-&gt;S9</title>
<path fill="none" stroke="#000000" d="M422.6125,-63.6527C433.2206,-60.2582 446.439,-56.0284 458.5269,-52.1604"/>
<polygon fill="#000000" stroke="#000000" points="459.8752,-55.4039 468.3327,-49.0226 457.7417,-48.7369 459.8752,-55.4039"/>
<text text-anchor="middle" x="445.3614" y="-62.4333" font-family="Times,serif" font-size="14.00" fill="#000000">ε</text>
</g>
<!-- S1 -->
<g id="node7" class="node">
<title>S1</title>
<ellipse fill="none" stroke="#000000" cx="107.8604" cy="-81.2333" rx="21.4691" ry="21.4691"/>
<text text-anchor="middle" x="107.8604" y="-77.0333" font-family="Times,serif" font-size="14.00" fill="#000000">S1</text>
</g>
<!-- S1&#45;&gt;S2 -->
<g id="edge5" class="edge">
<title>S1-&gt;S2</title>
<path fill="none" stroke="#000000" d="M126.6572,-91.8655C138.3496,-98.4792 153.5959,-107.1032 166.6717,-114.4994"/>
<polygon fill="#000000" stroke="#000000" points="165.3002,-117.7447 175.7275,-119.6218 168.7466,-111.6519 165.3002,-117.7447"/>
<text text-anchor="middle" x="151.174" y="-110.4333" font-family="Times,serif" font-size="14.00" fill="#000000">ε</text>
</g>
<!-- S1&#45;&gt;S4 -->
<g id="edge6" class="edge">
<title>S1-&gt;S4</title>
<path fill="none" stroke="#000000" d="M129.2739,-78.5142C139.5544,-77.2087 152.0687,-75.6197 163.3752,-74.184"/>
<polygon fill="#000000" stroke="#000000" points="163.841,-77.653 173.3204,-72.9211 162.9592,-70.7088 163.841,-77.653"/>
<text text-anchor="middle" x="151.174" y="-79.4333" font-family="Times,serif" font-size="14.00" fill="#000000">ε</text>
</g>
<!-- S7 -->
<g id="node8" class="node">
<title>S7</title>
<ellipse fill="none" stroke="#000000" cx="107.8604" cy="-21.2333" rx="21.4691" ry="21.4691"/>
<text text-anchor="middle" x="107.8604" y="-17.0333" font-family="Times,serif" font-size="14.00" fill="#000000">S7</text>
</g>
<!-- S8 -->
<g id="node9" class="node">
<title>S8</title>
<ellipse fill="none" stroke="#000000" cx="254.9541" cy="-21.2333" rx="21.4691" ry="21.4691"/>
<text text-anchor="middle" x="254.9541" y="-17.0333" font-family="Times,serif" font-size="14.00" fill="#000000">S8</text>
</g>
<!-- S7&#45;&gt;S8 -->
<g id="edge7" class="edge">
<title>S7-&gt;S8</title>
<path fill="none" stroke="#000000" d="M129.2491,-21.2333C153.9779,-21.2333 194.9148,-21.2333 223.3246,-21.2333"/>
<polygon fill="#000000" stroke="#000000" points="223.5397,-24.7334 233.5396,-21.2333 223.5396,-17.7334 223.5397,-24.7334"/>
<text text-anchor="middle" x="151.174" y="-25.4333" font-family="Times,serif" font-size="14.00" fill="#000000">a</text>
</g>
<!-- S8&#45;&gt;S9 -->
<g id="edge11" class="edge">
<title>S8-&gt;S9</title>
<path fill="none" stroke="#000000" d="M276.4695,-23.0434C317.5497,-26.4996 407.5044,-34.0677 457.4664,-38.2711"/>
<polygon fill="#000000" stroke="#000000" points="457.2304,-41.7635 467.4887,-39.1143 457.8174,-34.7882 457.2304,-41.7635"/>
<text text-anchor="middle" x="358.7343" y="-34.4333" font-family="Times,serif" font-size="14.00" fill="#000000">ε</text>
</g>
<!-- S0 -->
<g id="node10" class="node">
<title>S0</title>
<ellipse fill="none" stroke="#000000" cx="21.2333" cy="-51.2333" rx="21.4691" ry="21.4691"/>
<text text-anchor="middle" x="21.2333" y="-47.0333" font-family="Times,serif" font-size="14.00" fill="#000000">S0</text>
</g>
<!-- S0&#45;&gt;S1 -->
<g id="edge8" class="edge">
<title>S0-&gt;S1</title>
<path fill="none" stroke="#000000" d="M41.325,-58.1913C52.1804,-61.9506 65.7986,-66.6668 77.8824,-70.8515"/>
<polygon fill="#000000" stroke="#000000" points="76.9828,-74.2439 87.5776,-74.2091 79.2735,-67.6293 76.9828,-74.2439"/>
<text text-anchor="middle" x="64.5469" y="-70.4333" font-family="Times,serif" font-size="14.00" fill="#000000">ε</text>
</g>
<!-- S0&#45;&gt;S7 -->
<g id="edge9" class="edge">
<title>S0-&gt;S7</title>
<path fill="none" stroke="#000000" d="M41.325,-44.2753C52.1804,-40.5159 65.7986,-35.7998 77.8824,-31.615"/>
<polygon fill="#000000" stroke="#000000" points="79.2735,-34.8373 87.5776,-28.2575 76.9828,-28.2227 79.2735,-34.8373"/>
<text text-anchor="middle" x="64.5469" y="-41.4333" font-family="Times,serif" font-size="14.00" fill="#000000">ε</text>
</g>
</g>
</svg>