<?xml version="1.0" encoding="UTF-8" standalone="no"?><!DOCTYPE svg PUBLIC "-//W3C//DTD SVG 1.1//EN" "http://www.w3.org/Graphics/SVG/1.1/DTD/svg11.dtd"><!-- Generated by graphviz version 2.40.1 (20161225.0304)
 --><!-- Title: kleene_closure Pages: 1 --><svg xmlns="http://www.w3.org/2000/svg" xmlns:xlink="http://www.w3.org/1999/xlink" width="318pt" height="114pt" viewBox="0.00 0.00 318.35 113.93">
<g id="graph0" class="graph" transform="scale(1 1) rotate(0) translate(4 109.9261)">
<title>kleene_closure</title>
<polygon fill="#ffffff" stroke="transparent" points="-4,4 -4,-109.9261 314.348,-109.9261 314.348,4 -4,4"/>
<!-- S3 -->
<g id="node1" class="node">
<title>S3</title>
<ellipse fill="none" stroke="#000000" cx="285.1147" cy="-76.1261" rx="21.4314" ry="21.4314"/>
<ellipse fill="none" stroke="#000000" cx="285.1147" cy="-76.1261" rx="25.4687" ry="25.4687"/>
<text text-anchor="middle" x="285.1147" y="-71.9261" font-family="Times,serif" font-size="14.00" fill="#000000">S3</text>
</g>
<!-- S0 -->
<g id="node2" class="node">
<title>S0</title>
<ellipse fill="none" stroke="#000000" cx="21.2333" cy="-51.1261" rx="21.4691" ry="21.4691"/>
<text text-anchor="middle" x="21.2333" y="-46.9261" font-family="Times,serif" font-size="14.00" fill="#000000">S0</text>
</g>
<!-- S0&#45;&gt;S3 -->
<g id="edge3" class="edge">
<title>S0-&gt;S3</title>
<path fill="none" stroke="#000000" d="M39.2889,-62.4495C51.9789,-69.6282 69.6558,-78.1102 86.6272,-81.1261 154.5774,-93.2012 173.1553,-90.4312 241.8815,-84.1261 244.568,-83.8796 247.3369,-83.5487 250.114,-83.1614"/>
<polygon fill="#000000" stroke="#000000" points="250.7571,-86.603 260.0756,-81.5617 249.6471,-79.6916 250.7571,-86.603"/>
<text text-anchor="middle" x="151.174" y="-93.3261" font-family="Times,serif" font-size="14.00" fill="#000000">ε</text>
</g>
<!-- S1 -->
<g id="node3" class="node">
<title>S1</title>
<ellipse fill="none" stroke="#000000" cx="107.8604" cy="-51.1261" rx="21.4691" ry="21.4691"/>
<text text-anchor="middle" x="107.8604" y="-46.9261" font-family="Times,serif" font-size="14.00" fill="#000000">S1</text>
</g>
<!-- S0&#45;&gt;S1 -->
<g id="edge1" class="edge">
<title>S0-&gt;S1</title>
<path fill="none" stroke="#000000" d="M42.6467,-51.1261C52.7464,-51.1261 65.0019,-51.1261 76.1503,-51.1261"/>
<polygon fill="#000000" stroke="#000000" points="76.3931,-54.6262 86.3931,-51.1261 76.393,-47.6262 76.3931,-54.6262"/>
<text text-anchor="middle" x="64.5469" y="-55.3261" font-family="Times,serif" font-size="14.00" fill="#000000">ε</text>
</g>
<!-- S2 -->
<g id="node4" class="node">
<title>S2</title>
<ellipse fill="none" stroke="#000000" cx="194.4876" cy="-51.1261" rx="21.4691" ry="21.4691"/>
<text text-anchor="middle" x="194.4876" y="-46.9261" font-family="Times,serif" font-size="14.00" fill="#000000">S2</text>
</g>
<!-- S1&#45;&gt;S2 -->
<g id="edge2" class="edge">
<title>S1-&gt;S2</title>
<path fill="none" stroke="#000000" d="M129.2739,-51.1261C139.3736,-51.1261 151.6291,-51.1261 162.7774,-51.1261"/>
<polygon fill="#000000" stroke="#000000" points="163.0203,-54.6262 173.0202,-51.1261 163.0202,-47.6262 163.0203,-54.6262"/>
<text text-anchor="middle" x="151.174" y="-55.3261" font-family="Times,serif" font-size="14.00" fill="#000000">a</text>
</g>
<!-- S2&#45;&gt;S3 -->
<g id="edge4" class="edge">
<title>S2-&gt;S3</title>
<path fill="none" stroke="#000000" d="M215.0523,-56.799C225.6603,-59.7253 238.8787,-63.3716 250.9666,-66.7061"/>
<polygon fill="#000000" stroke="#000000" points="250.2018,-70.1258 260.7725,-69.4111 252.0633,-63.3779 250.2018,-70.1258"/>
<text text-anchor="middle" x="237.8012" y="-67.3261" font-family="Times,serif" font-size="14.00" fill="#000000">ε</text>
</g>
<!-- S2&#45;&gt;S0 -->
<g id="edge5" class="edge">
<title>S2-&gt;S0</title>
<path fill="none" stroke="#000000" d="M179.3921,-36.0799C167.0421,-24.9014 148.5015,-10.5554 129.0937,-4.3261 111.1227,1.442 104.5982,1.442 86.6272,-4.3261 70.8583,-9.3874 55.662,-19.807 43.8935,-29.5323"/>
<polygon fill="#000000" stroke="#000000" points="41.5993,-26.889 36.3288,-36.0799 46.1805,-32.1817 41.5993,-26.889"/>
<text text-anchor="middle" x="107.8604" y="-9.3261" font-family="Times,serif" font-size="14.00" fill="#000000">ε</text>
</g>
</g>
</svg>