<?xml version="1.0" encoding="UTF-8" standalone="no"?><!DOCTYPE svg PUBLIC "-//W3C//DTD SVG 1.1//EN" "http://www.w3.org/Graphics/SVG/1.1/DTD/svg11.dtd"><!-- Generated by graphviz version 2.40.1 (20161225.0304)
 --><!-- Title: kleene_closure Pages: 1 --><svg xmlns="http://www.w3.org/2000/svg" xmlns:xlink="http://www.w3.org/1999/xlink" width="318pt" height="87pt" viewBox="0.00 0.00 318.35 87.47">
<g id="graph0" class="graph" transform="scale(1 1) rotate(0) translate(4 83.4666)">
<title>kleene_closure</title>
<polygon fill="#ffffff" stroke="transparent" points="-4,4 -4,-83.4666 314.348,-83.4666 314.348,4 -4,4"/>
<!-- S0 -->
<g id="node1" class="node">
<title>S0</title>
<ellipse fill="none" stroke="#000000" cx="21.2333" cy="-25.2333" rx="21.4691" ry="21.4691"/>
<text text-anchor="middle" x="21.2333" y="-21.0333" font-family="Times,serif" font-size="14.00" fill="#000000">S0</text>
</g>
<!-- S1 -->
<g id="node2" class="node">
<title>S1</title>
<ellipse fill="none" stroke="#000000" cx="107.8604" cy="-58.2333" rx="21.4691" ry="21.4691"/>
<text text-anchor="middle" x="107.8604" y="-54.0333" font-family="Times,serif" font-size="14.00" fill="#000000">S1</text>
</g>
<!-- S0&#45;&gt;S1 -->
<g id="edge1" class="edge">
<title>S0-&gt;S1</title>
<path fill="none" stroke="#000000" d="M41.325,-32.8871C52.3678,-37.0938 66.2697,-42.3896 78.5069,-47.0513"/>
<polygon fill="#000000" stroke="#000000" points="77.2867,-50.3318 87.8776,-50.621 79.7787,-43.7903 77.2867,-50.3318"/>
<text text-anchor="middle" x="64.5469" y="-46.4333" font-family="Times,serif" font-size="14.00" fill="#000000">ε</text>
</g>
<!-- S3 -->
<g id="node4" class="node">
<title>S3</title>
<ellipse fill="none" stroke="#000000" cx="285.1147" cy="-25.2333" rx="21.4314" ry="21.4314"/>
<ellipse fill="none" stroke="#000000" cx="285.1147" cy="-25.2333" rx="25.4687" ry="25.4687"/>
<text text-anchor="middle" x="285.1147" y="-21.0333" font-family="Times,serif" font-size="14.00" fill="#000000">S3</text>
</g>
<!-- S0&#45;&gt;S3 -->
<g id="edge3" class="edge">
<title>S0-&gt;S3</title>
<path fill="none" stroke="#000000" d="M42.8278,-25.2333C88.2736,-25.2333 194.1641,-25.2333 249.694,-25.2333"/>
<polygon fill="#000000" stroke="#000000" points="249.7734,-28.7334 259.7734,-25.2333 249.7734,-21.7334 249.7734,-28.7334"/>
<text text-anchor="middle" x="151.174" y="-29.4333" font-family="Times,serif" font-size="14.00" fill="#000000">ε</text>
</g>
<!-- S2 -->
<g id="node3" class="node">
<title>S2</title>
<ellipse fill="none" stroke="#000000" cx="194.4876" cy="-58.2333" rx="21.4691" ry="21.4691"/>
<text text-anchor="middle" x="194.4876" y="-54.0333" font-family="Times,serif" font-size="14.00" fill="#000000">S2</text>
</g>
<!-- S1&#45;&gt;S2 -->
<g id="edge4" class="edge">
<title>S1-&gt;S2</title>
<path fill="none" stroke="#000000" d="M129.2739,-58.2333C139.3736,-58.2333 151.6291,-58.2333 162.7774,-58.2333"/>
<polygon fill="#000000" stroke="#000000" points="163.0203,-61.7334 173.0202,-58.2333 163.0202,-54.7334 163.0203,-61.7334"/>
<text text-anchor="middle" x="151.174" y="-62.4333" font-family="Times,serif" font-size="14.00" fill="#000000">a</text>
</g>
<!-- S2&#45;&gt;S3 -->
<g id="edge2" class="edge">
<title>S2-&gt;S3</title>
<path fill="none" stroke="#000000" d="M214.6007,-50.9095C225.4636,-46.954 239.1598,-41.9668 251.5854,-37.4423"/>
<polygon fill="#000000" stroke="#000000" points="253.0009,-40.6517 261.1998,-33.9414 250.6058,-34.0742 253.0009,-40.6517"/>
<text text-anchor="middle" x="237.8012" y="-47.4333" font-family="Times,serif" font-size="14.00" fill="#000000">ε</text>
</g>
</g>
</svg>