<?xml version="1.0" encoding="UTF-8" standalone="no"?><!DOCTYPE svg PUBLIC "-//W3C//DTD SVG 1.1//EN" "http://www.w3.org/Graphics/SVG/1.1/DTD/svg11.dtd"><!-- Generated by graphviz version 2.40.1 (20161225.0304)
 --><!-- Title: G Pages: 1 --><svg xmlns="http://www.w3.org/2000/svg" xmlns:xlink="http://www.w3.org/1999/xlink" width="474pt" height="107pt" viewBox="0.00 0.00 473.59 107.47">
<g id="graph0" class="graph" transform="scale(1 1) rotate(0) translate(4 103.4666)">
<title>G</title>
<polygon fill="#ffffff" stroke="transparent" points="-4,4 -4,-103.4666 469.5871,-103.4666 469.5871,4 -4,4"/>
<!-- S3 -->
<g id="node1" class="node">
<title>S3</title>
<ellipse fill="none" stroke="#000000" cx="440.3538" cy="-56.2333" rx="21.4314" ry="21.4314"/>
<ellipse fill="none" stroke="#000000" cx="440.3538" cy="-56.2333" rx="25.4687" ry="25.4687"/>
<text text-anchor="middle" x="440.3538" y="-52.0333" font-family="Times,serif" font-size="14.00" fill="#000000">S3</text>
</g>
<!-- S0 -->
<g id="node2" class="node">
<title>S0</title>
<ellipse fill="none" stroke="#000000" cx="21.2333" cy="-53.2333" rx="21.4691" ry="21.4691"/>
<text text-anchor="middle" x="21.2333" y="-49.0333" font-family="Times,serif" font-size="14.00" fill="#000000">S0</text>
</g>
<!-- S1 -->
<g id="node3" class="node">
<title>S1</title>
<ellipse fill="none" stroke="#000000" cx="168.327" cy="-77.2333" rx="21.4691" ry="21.4691"/>
<text text-anchor="middle" x="168.327" y="-73.0333" font-family="Times,serif" font-size="14.00" fill="#000000">S1</text>
</g>
<!-- S0&#45;&gt;S1 -->
<g id="edge1" class="edge">
<title>S0-&gt;S1</title>
<path fill="none" stroke="#000000" d="M42.3082,-56.6719C67.2123,-60.7353 108.8652,-67.5314 137.4192,-72.1903"/>
<polygon fill="#000000" stroke="#000000" points="136.858,-75.645 147.2911,-73.801 137.9853,-68.7363 136.858,-75.645"/>
<text text-anchor="middle" x="64.5469" y="-65.4333" font-family="Times,serif" font-size="14.00" fill="#000000">ε</text>
</g>
<!-- S4 -->
<g id="node5" class="node">
<title>S4</title>
<ellipse fill="none" stroke="#000000" cx="107.8604" cy="-27.2333" rx="21.4691" ry="21.4691"/>
<text text-anchor="middle" x="107.8604" y="-23.0333" font-family="Times,serif" font-size="14.00" fill="#000000">S4</text>
</g>
<!-- S0&#45;&gt;S4 -->
<g id="edge4" class="edge">
<title>S0-&gt;S4</title>
<path fill="none" stroke="#000000" d="M41.0211,-45.2021C47.1926,-42.851 54.0611,-40.3894 60.4666,-38.4333 65.8236,-36.7973 71.582,-35.258 77.1752,-33.8749"/>
<polygon fill="#000000" stroke="#000000" points="78.0154,-37.2728 86.9424,-31.5668 76.4055,-30.4604 78.0154,-37.2728"/>
<text text-anchor="middle" x="64.5469" y="-43.4333" font-family="Times,serif" font-size="14.00" fill="#000000">ε</text>
</g>
<!-- S2 -->
<g id="node4" class="node">
<title>S2</title>
<ellipse fill="none" stroke="#000000" cx="289.2601" cy="-78.2333" rx="21.4691" ry="21.4691"/>
<text text-anchor="middle" x="289.2601" y="-74.0333" font-family="Times,serif" font-size="14.00" fill="#000000">S2</text>
</g>
<!-- S1&#45;&gt;S2 -->
<g id="edge2" class="edge">
<title>S1-&gt;S2</title>
<path fill="none" stroke="#000000" d="M189.669,-77.4098C208.4634,-77.5652 236.0953,-77.7937 257.4885,-77.9706"/>
<polygon fill="#000000" stroke="#000000" points="257.696,-81.4723 267.7246,-78.0552 257.7539,-74.4725 257.696,-81.4723"/>
<text text-anchor="middle" x="228.7935" y="-81.4333" font-family="Times,serif" font-size="14.00" fill="#000000">ε</text>
</g>
<!-- S2&#45;&gt;S3 -->
<g id="edge3" class="edge">
<title>S2-&gt;S3</title>
<path fill="none" stroke="#000000" d="M310.5877,-75.1279C335.1478,-71.5518 375.8664,-65.623 405.1461,-61.3597"/>
<polygon fill="#000000" stroke="#000000" points="405.9734,-64.7762 415.3647,-59.8718 404.9647,-57.8493 405.9734,-64.7762"/>
<text text-anchor="middle" x="349.7266" y="-77.4333" font-family="Times,serif" font-size="14.00" fill="#000000">a</text>
</g>
<!-- S5 -->
<g id="node6" class="node">
<title>S5</title>
<ellipse fill="none" stroke="#000000" cx="228.7935" cy="-21.2333" rx="21.4691" ry="21.4691"/>
<text text-anchor="middle" x="228.7935" y="-17.0333" font-family="Times,serif" font-size="14.00" fill="#000000">S5</text>
</g>
<!-- S4&#45;&gt;S5 -->
<g id="edge5" class="edge">
<title>S4-&gt;S5</title>
<path fill="none" stroke="#000000" d="M129.2025,-26.1744C147.9968,-25.2419 175.6288,-23.871 197.0219,-22.8096"/>
<polygon fill="#000000" stroke="#000000" points="197.4438,-26.2931 207.2581,-22.3017 197.0969,-19.3017 197.4438,-26.2931"/>
<text text-anchor="middle" x="168.327" y="-29.4333" font-family="Times,serif" font-size="14.00" fill="#000000">b</text>
</g>
<!-- S6 -->
<g id="node7" class="node">
<title>S6</title>
<ellipse fill="none" stroke="#000000" cx="349.7266" cy="-21.2333" rx="21.4691" ry="21.4691"/>
<text text-anchor="middle" x="349.7266" y="-17.0333" font-family="Times,serif" font-size="14.00" fill="#000000">S6</text>
</g>
<!-- S5&#45;&gt;S6 -->
<g id="edge6" class="edge">
<title>S5-&gt;S6</title>
<path fill="none" stroke="#000000" d="M250.1356,-21.2333C268.9299,-21.2333 296.5619,-21.2333 317.955,-21.2333"/>
<polygon fill="#000000" stroke="#000000" points="318.1912,-24.7334 328.1912,-21.2333 318.1911,-17.7334 318.1912,-24.7334"/>
<text text-anchor="middle" x="289.2601" y="-25.4333" font-family="Times,serif" font-size="14.00" fill="#000000">c</text>
</g>
<!-- S6&#45;&gt;S3 -->
<g id="edge7" class="edge">
<title>S6-&gt;S3</title>
<path fill="none" stroke="#000000" d="M369.8397,-29.0009C380.785,-33.2279 394.6065,-38.5658 407.1067,-43.3933"/>
<polygon fill="#000000" stroke="#000000" points="406.1786,-46.7868 416.7681,-47.1245 408.7005,-40.2568 406.1786,-46.7868"/>
<text text-anchor="middle" x="393.0402" y="-43.4333" font-family="Times,serif" font-size="14.00" fill="#000000">ε</text>
</g>
</g>
</svg>