<?xml version="1.0" encoding="UTF-8" standalone="no"?><!DOCTYPE svg PUBLIC "-//W3C//DTD SVG 1.1//EN" "http://www.w3.org/Graphics/SVG/1.1/DTD/svg11.dtd"><!-- Generated by graphviz version 2.40.1 (20161225.0304)
 --><!-- Title: G Pages: 1 --><svg xmlns="http://www.w3.org/2000/svg" xmlns:xlink="http://www.w3.org/1999/xlink" width="680pt" height="145pt" viewBox="0.00 0.00 679.99 145.47">
<g id="graph0" class="graph" transform="scale(1 1) rotate(0) translate(4 141.4666)">
<title>G</title>
<polygon fill="#ffffff" stroke="transparent" points="-4,4 -4,-141.4666 675.9867,-141.4666 675.9867,4 -4,4"/>
<!-- S3 -->
<g id="node1" class="node">
<title>S3</title>
<ellipse fill="none" stroke="#000000" cx="646.7534" cy="-70.2333" rx="21.4314" ry="21.4314"/>
<ellipse fill="none" stroke="#000000" cx="646.7534" cy="-70.2333" rx="25.4687" ry="25.4687"/>
<text text-anchor="middle" x="646.7534" y="-66.0333" font-family="Times,serif" font-size="14.00" fill="#000000">S3</text>
</g>
<!-- S0 -->
<g id="node2" class="node">
<title>S0</title>
<ellipse fill="none" stroke="#000000" cx="21.2333" cy="-91.2333" rx="21.4691" ry="21.4691"/>
<text text-anchor="middle" x="21.2333" y="-87.0333" font-family="Times,serif" font-size="14.00" fill="#000000">S0</text>
</g>
<!-- S1 -->
<g id="node3" class="node">
<title>S1</title>
<ellipse fill="none" stroke="#000000" cx="168.327" cy="-115.2333" rx="21.4691" ry="21.4691"/>
<text text-anchor="middle" x="168.327" y="-111.0333" font-family="Times,serif" font-size="14.00" fill="#000000">S1</text>
</g>
<!-- S0&#45;&gt;S1 -->
<g id="edge1" class="edge">
<title>S0-&gt;S1</title>
<path fill="none" stroke="#000000" d="M42.3082,-94.6719C67.2123,-98.7353 108.8652,-105.5314 137.4192,-110.1903"/>
<polygon fill="#000000" stroke="#000000" points="136.858,-113.645 147.2911,-111.801 137.9853,-106.7363 136.858,-113.645"/>
<text text-anchor="middle" x="64.5469" y="-102.4333" font-family="Times,serif" font-size="14.00" fill="#000000">ε</text>
</g>
<!-- S4 -->
<g id="node5" class="node">
<title>S4</title>
<ellipse fill="none" stroke="#000000" cx="107.8604" cy="-65.2333" rx="21.4691" ry="21.4691"/>
<text text-anchor="middle" x="107.8604" y="-61.0333" font-family="Times,serif" font-size="14.00" fill="#000000">S4</text>
</g>
<!-- S0&#45;&gt;S4 -->
<g id="edge4" class="edge">
<title>S0-&gt;S4</title>
<path fill="none" stroke="#000000" d="M41.0211,-83.2021C47.1926,-80.851 54.0611,-78.3894 60.4666,-76.4333 65.8236,-74.7973 71.582,-73.258 77.1752,-71.8749"/>
<polygon fill="#000000" stroke="#000000" points="78.0154,-75.2728 86.9424,-69.5668 76.4055,-68.4604 78.0154,-75.2728"/>
<text text-anchor="middle" x="64.5469" y="-80.4333" font-family="Times,serif" font-size="14.00" fill="#000000">ε</text>
</g>
<!-- S2 -->
<g id="node4" class="node">
<title>S2</title>
<ellipse fill="none" stroke="#000000" cx="289.2601" cy="-116.2333" rx="21.4691" ry="21.4691"/>
<text text-anchor="middle" x="289.2601" y="-112.0333" font-family="Times,serif" font-size="14.00" fill="#000000">S2</text>
</g>
<!-- S1&#45;&gt;S2 -->
<g id="edge2" class="edge">
<title>S1-&gt;S2</title>
<path fill="none" stroke="#000000" d="M189.669,-115.4098C208.4634,-115.5652 236.0953,-115.7937 257.4885,-115.9706"/>
<polygon fill="#000000" stroke="#000000" points="257.696,-119.4723 267.7246,-116.0552 257.7539,-112.4725 257.696,-119.4723"/>
<text text-anchor="middle" x="228.7935" y="-119.4333" font-family="Times,serif" font-size="14.00" fill="#000000">ε</text>
</g>
<!-- S2&#45;&gt;S3 -->
<g id="edge3" class="edge">
<title>S2-&gt;S3</title>
<path fill="none" stroke="#000000" d="M310.6684,-116.2333C334.8388,-116.2333 375.3409,-116.2333 410.1932,-116.2333 410.1932,-116.2333 410.1932,-116.2333 556.1263,-116.2333 578.9651,-116.2333 601.8771,-104.4735 618.9497,-92.8458"/>
<polygon fill="#000000" stroke="#000000" points="621.2322,-95.5158 627.3139,-86.8403 617.1495,-89.8296 621.2322,-95.5158"/>
<text text-anchor="middle" x="470.6597" y="-120.4333" font-family="Times,serif" font-size="14.00" fill="#000000">a</text>
</g>
<!-- S5 -->
<g id="node6" class="node">
<title>S5</title>
<ellipse fill="none" stroke="#000000" cx="228.7935" cy="-59.2333" rx="21.4691" ry="21.4691"/>
<text text-anchor="middle" x="228.7935" y="-55.0333" font-family="Times,serif" font-size="14.00" fill="#000000">S5</text>
</g>
<!-- S4&#45;&gt;S5 -->
<g id="edge5" class="edge">
<title>S4-&gt;S5</title>
<path fill="none" stroke="#000000" d="M129.2025,-64.1744C147.9968,-63.2419 175.6288,-61.871 197.0219,-60.8096"/>
<polygon fill="#000000" stroke="#000000" points="197.4438,-64.2931 207.2581,-60.3017 197.0969,-57.3017 197.4438,-64.2931"/>
<text text-anchor="middle" x="168.327" y="-66.4333" font-family="Times,serif" font-size="14.00" fill="#000000">b</text>
</g>
<!-- S6 -->
<g id="node7" class="node">
<title>S6</title>
<ellipse fill="none" stroke="#000000" cx="410.1932" cy="-70.2333" rx="21.4691" ry="21.4691"/>
<text text-anchor="middle" x="410.1932" y="-66.0333" font-family="Times,serif" font-size="14.00" fill="#000000">S6</text>
</g>
<!-- S5&#45;&gt;S6 -->
<g id="edge6" class="edge">
<title>S5-&gt;S6</title>
<path fill="none" stroke="#000000" d="M250.3148,-60.5383C282.1756,-62.4703 342.0759,-66.1027 378.8241,-68.3311"/>
<polygon fill="#000000" stroke="#000000" points="378.7871,-71.8352 388.9806,-68.947 379.2108,-64.848 378.7871,-71.8352"/>
<text text-anchor="middle" x="289.2601" y="-67.4333" font-family="Times,serif" font-size="14.00" fill="#000000">ε</text>
</g>
<!-- S7 -->
<g id="node8" class="node">
<title>S7</title>
<ellipse fill="none" stroke="#000000" cx="349.7266" cy="-21.2333" rx="21.4691" ry="21.4691"/>
<text text-anchor="middle" x="349.7266" y="-17.0333" font-family="Times,serif" font-size="14.00" fill="#000000">S7</text>
</g>
<!-- S5&#45;&gt;S7 -->
<g id="edge7" class="edge">
<title>S5-&gt;S7</title>
<path fill="none" stroke="#000000" d="M244.9216,-45.0836C251.6336,-39.9526 259.7779,-34.6359 268.0268,-31.4333 283.8337,-25.2963 302.534,-22.6567 318.0522,-21.5909"/>
<polygon fill="#000000" stroke="#000000" points="318.4006,-25.0779 328.2125,-21.0809 318.0496,-18.0868 318.4006,-25.0779"/>
<text text-anchor="middle" x="289.2601" y="-36.4333" font-family="Times,serif" font-size="14.00" fill="#000000">ε</text>
</g>
<!-- S6&#45;&gt;S3 -->
<g id="edge11" class="edge">
<title>S6-&gt;S3</title>
<path fill="none" stroke="#000000" d="M431.6036,-70.2333C472.2916,-70.2333 561.1611,-70.2333 611.0155,-70.2333"/>
<polygon fill="#000000" stroke="#000000" points="611.3251,-73.7334 621.3251,-70.2333 611.325,-66.7334 611.3251,-73.7334"/>
<text text-anchor="middle" x="513.393" y="-74.4333" font-family="Times,serif" font-size="14.00" fill="#000000">c</text>
</g>
<!-- S8 -->
<g id="node9" class="node">
<title>S8</title>
<ellipse fill="none" stroke="#000000" cx="470.6597" cy="-21.2333" rx="21.4691" ry="21.4691"/>
<text text-anchor="middle" x="470.6597" y="-17.0333" font-family="Times,serif" font-size="14.00" fill="#000000">S8</text>
</g>
<!-- S7&#45;&gt;S8 -->
<g id="edge8" class="edge">
<title>S7-&gt;S8</title>
<path fill="none" stroke="#000000" d="M371.0687,-21.2333C389.863,-21.2333 417.495,-21.2333 438.8881,-21.2333"/>
<polygon fill="#000000" stroke="#000000" points="439.1243,-24.7334 449.1243,-21.2333 439.1242,-17.7334 439.1243,-24.7334"/>
<text text-anchor="middle" x="410.1932" y="-25.4333" font-family="Times,serif" font-size="14.00" fill="#000000">ε</text>
</g>
<!-- S9 -->
<g id="node10" class="node">
<title>S9</title>
<ellipse fill="none" stroke="#000000" cx="556.1263" cy="-21.2333" rx="21.4691" ry="21.4691"/>
<text text-anchor="middle" x="556.1263" y="-17.0333" font-family="Times,serif" font-size="14.00" fill="#000000">S9</text>
</g>
<!-- S8&#45;&gt;S9 -->
<g id="edge9" class="edge">
<title>S8-&gt;S9</title>
<path fill="none" stroke="#000000" d="M492.2266,-21.2333C502.0178,-21.2333 513.7924,-21.2333 524.5521,-21.2333"/>
<polygon fill="#000000" stroke="#000000" points="524.8625,-24.7334 534.8624,-21.2333 524.8624,-17.7334 524.8625,-24.7334"/>
<text text-anchor="middle" x="513.393" y="-25.4333" font-family="Times,serif" font-size="14.00" fill="#000000">d</text>
</g>
<!-- S9&#45;&gt;S3 -->
<g id="edge10" class="edge">
<title>S9-&gt;S3</title>
<path fill="none" stroke="#000000" d="M576.4543,-27.7642C585.0271,-30.8409 594.9786,-34.8462 603.5202,-39.4333 608.4931,-42.1039 613.5612,-45.2597 618.3944,-48.5156"/>
<polygon fill="#000000" stroke="#000000" points="616.5748,-51.5148 626.7689,-54.4013 620.5999,-45.7877 616.5748,-51.5148"/>
<text text-anchor="middle" x="599.4399" y="-44.4333" font-family="Times,serif" font-size="14.00" fill="#000000">ε</text>
</g>
</g>
</svg>