<?xml version="1.0" encoding="UTF-8" standalone="no"?><!DOCTYPE svg PUBLIC "-//W3C//DTD SVG 1.1//EN" "http://www.w3.org/Graphics/SVG/1.1/DTD/svg11.dtd"><!-- Generated by graphviz version 2.40.1 (20161225.0304)
 --><!-- Title: G Pages: 1 --><svg xmlns="http://www.w3.org/2000/svg" xmlns:xlink="http://www.w3.org/1999/xlink" width="210pt" height="210pt" viewBox="0.00 0.00 210.03 210.00">
<g id="graph0" class="graph" transform="scale(1 1) rotate(0) translate(4 206)">
<title>G</title>
<polygon fill="#ffffff" stroke="transparent" points="-4,4 -4,-206 206.0314,-206 206.0314,4 -4,4"/>
<!-- B -->
<g id="node1" class="node">
<title>B</title>
<ellipse fill="none" stroke="#000000" cx="101.0157" cy="-132" rx="18" ry="18"/>
<ellipse fill="none" stroke="#000000" cx="101.0157" cy="-132" rx="22" ry="22"/>
<text text-anchor="middle" x="101.0157" y="-127.8" font-family="Times,serif" font-size="14.00" fill="#000000">B</text>
</g>
<!-- F -->
<g id="node4" class="node">
<title>F</title>
<ellipse fill="none" stroke="#000000" cx="184.0236" cy="-184" rx="18" ry="18"/>
<text text-anchor="middle" x="184.0236" y="-179.8" font-family="Times,serif" font-size="14.00" fill="#000000">F</text>
</g>
<!-- B&#45;&gt;F -->
<g id="edge3" class="edge">
<title>B-&gt;F</title>
<path fill="none" stroke="#000000" d="M119.8515,-143.7996C131.7067,-151.2263 147.1215,-160.8828 159.8717,-168.8701"/>
<polygon fill="#000000" stroke="#000000" points="158.2633,-171.9926 168.5959,-174.3354 161.9795,-166.0604 158.2633,-171.9926"/>
<text text-anchor="middle" x="144.5157" y="-165.2" font-family="Times,serif" font-size="14.00" fill="#000000">a</text>
</g>
<!-- G -->
<g id="node5" class="node">
<title>G</title>
<ellipse fill="none" stroke="#000000" cx="184.0236" cy="-130" rx="18.0157" ry="18.0157"/>
<text text-anchor="middle" x="184.0236" y="-125.8" font-family="Times,serif" font-size="14.00" fill="#000000">G</text>
</g>
<!-- B&#45;&gt;G -->
<g id="edge4" class="edge">
<title>B-&gt;G</title>
<path fill="none" stroke="#000000" d="M123.2603,-131.464C133.2732,-131.2228 145.2076,-130.9352 155.8381,-130.6791"/>
<polygon fill="#000000" stroke="#000000" points="156.0018,-134.1763 165.9145,-130.4363 155.8331,-127.1783 156.0018,-134.1763"/>
<text text-anchor="middle" x="144.5157" y="-135.2" font-family="Times,serif" font-size="14.00" fill="#000000">b</text>
</g>
<!-- C -->
<g id="node2" class="node">
<title>C</title>
<ellipse fill="none" stroke="#000000" cx="101.0157" cy="-70" rx="18" ry="18"/>
<ellipse fill="none" stroke="#000000" cx="101.0157" cy="-70" rx="22" ry="22"/>
<text text-anchor="middle" x="101.0157" y="-65.8" font-family="Times,serif" font-size="14.00" fill="#000000">C</text>
</g>
<!-- D -->
<g id="node6" class="node">
<title>D</title>
<ellipse fill="none" stroke="#000000" cx="184.0236" cy="-72" rx="18.0157" ry="18.0157"/>
<text text-anchor="middle" x="184.0236" y="-67.8" font-family="Times,serif" font-size="14.00" fill="#000000">D</text>
</g>
<!-- C&#45;&gt;D -->
<g id="edge5" class="edge">
<title>C-&gt;D</title>
<path fill="none" stroke="#000000" d="M123.2603,-70.536C133.2732,-70.7772 145.2076,-71.0648 155.8381,-71.3209"/>
<polygon fill="#000000" stroke="#000000" points="155.8331,-74.8217 165.9145,-71.5637 156.0018,-67.8237 155.8331,-74.8217"/>
<text text-anchor="middle" x="144.5157" y="-75.2" font-family="Times,serif" font-size="14.00" fill="#000000">a</text>
</g>
<!-- E -->
<g id="node7" class="node">
<title>E</title>
<ellipse fill="none" stroke="#000000" cx="184.0236" cy="-18" rx="18" ry="18"/>
<text text-anchor="middle" x="184.0236" y="-13.8" font-family="Times,serif" font-size="14.00" fill="#000000">E</text>
</g>
<!-- C&#45;&gt;E -->
<g id="edge6" class="edge">
<title>C-&gt;E</title>
<path fill="none" stroke="#000000" d="M119.8515,-58.2004C131.7067,-50.7737 147.1215,-41.1172 159.8717,-33.1299"/>
<polygon fill="#000000" stroke="#000000" points="161.9795,-35.9396 168.5959,-27.6646 158.2633,-30.0074 161.9795,-35.9396"/>
<text text-anchor="middle" x="144.5157" y="-48.2" font-family="Times,serif" font-size="14.00" fill="#000000">b</text>
</g>
<!-- A -->
<g id="node3" class="node">
<title>A</title>
<ellipse fill="none" stroke="#000000" cx="18.0079" cy="-101" rx="18.0157" ry="18.0157"/>
<text text-anchor="middle" x="18.0079" y="-96.8" font-family="Times,serif" font-size="14.00" fill="#000000">A</text>
</g>
<!-- A&#45;&gt;B -->
<g id="edge1" class="edge">
<title>A-&gt;B</title>
<path fill="none" stroke="#000000" d="M35.2071,-107.4232C45.4466,-111.2472 58.7334,-116.2093 70.6847,-120.6726"/>
<polygon fill="#000000" stroke="#000000" points="69.7209,-124.0488 80.3135,-124.2686 72.17,-117.4911 69.7209,-124.0488"/>
<text text-anchor="middle" x="57.5157" y="-120.2" font-family="Times,serif" font-size="14.00" fill="#000000">a</text>
</g>
<!-- A&#45;&gt;C -->
<g id="edge2" class="edge">
<title>A-&gt;C</title>
<path fill="none" stroke="#000000" d="M35.2071,-94.5768C45.4466,-90.7528 58.7334,-85.7907 70.6847,-81.3274"/>
<polygon fill="#000000" stroke="#000000" points="72.17,-84.5089 80.3135,-77.7314 69.7209,-77.9512 72.17,-84.5089"/>
<text text-anchor="middle" x="57.5157" y="-91.2" font-family="Times,serif" font-size="14.00" fill="#000000">b</text>
</g>
</g>
</svg>