<?xml version="1.0" encoding="UTF-8" standalone="no"?><!DOCTYPE svg PUBLIC "-//W3C//DTD SVG 1.1//EN" "http://www.w3.org/Graphics/SVG/1.1/DTD/svg11.dtd"><!-- Generated by graphviz version 2.40.1 (20161225.0304)
 --><!-- Title: G Pages: 1 --><svg xmlns="http://www.w3.org/2000/svg" xmlns:xlink="http://www.w3.org/1999/xlink" width="131pt" height="52pt" viewBox="0.00 0.00 131.02 52.00">
<g id="graph0" class="graph" transform="scale(1 1) rotate(0) translate(4 48)">
<title>G</title>
<polygon fill="#ffffff" stroke="transparent" points="-4,4 -4,-48 127.0157,-48 127.0157,4 -4,4"/>
<!-- B -->
<g id="node1" class="node">
<title>B</title>
<ellipse fill="none" stroke="#000000" cx="101.0157" cy="-22" rx="18" ry="18"/>
<ellipse fill="none" stroke="#000000" cx="101.0157" cy="-22" rx="22" ry="22"/>
<text text-anchor="middle" x="101.0157" y="-17.8" font-family="Times,serif" font-size="14.00" fill="#000000">B</text>
</g>
<!-- A -->
<g id="node2" class="node">
<title>A</title>
<ellipse fill="none" stroke="#000000" cx="18.0079" cy="-22" rx="18.0157" ry="18.0157"/>
<text text-anchor="middle" x="18.0079" y="-17.8" font-family="Times,serif" font-size="14.00" fill="#000000">A</text>
</g>
<!-- A&#45;&gt;B -->
<g id="edge1" class="edge">
<title>A-&gt;B</title>
<path fill="none" stroke="#000000" d="M36.0193,-22C45.5587,-22 57.567,-22 68.6583,-22"/>
<polygon fill="#000000" stroke="#000000" points="68.9006,-25.5001 78.9006,-22 68.9006,-18.5001 68.9006,-25.5001"/>
<text text-anchor="middle" x="57.5157" y="-26.2" font-family="Times,serif" font-size="14.00" fill="#000000">a</text>
</g>
<!-- A&#45;&gt;B -->
<g id="edge2" class="edge">
<title>A-&gt;B</title>
<path fill="none" stroke="#000000" d="M32.6458,-11.2066C38.8993,-7.2362 46.4847,-3.2188 54.0157,-1.2 60.8488,.6317 67.9573,-.666 74.5153,-3.3305"/>
<polygon fill="#000000" stroke="#000000" points="73.1381,-6.5577 83.6334,-8.007 76.3327,-.3291 73.1381,-6.5577"/>
<text text-anchor="middle" x="57.5157" y="-5.2" font-family="Times,serif" font-size="14.00" fill="#000000">b</text>
</g>
</g>
</svg>