<?xml version="1.0" encoding="UTF-8" standalone="no"?><!DOCTYPE svg PUBLIC "-//W3C//DTD SVG 1.1//EN" "http://www.w3.org/Graphics/SVG/1.1/DTD/svg11.dtd"><!-- Generated by graphviz version 2.40.1 (20161225.0304)
 --><!-- Title: DFA Pages: 1 --><svg xmlns="http://www.w3.org/2000/svg" xmlns:xlink="http://www.w3.org/1999/xlink" width="228pt" height="57pt" viewBox="0.00 0.00 228.27 57.38">
<g id="graph0" class="graph" transform="scale(1 1) rotate(0) translate(4 53.383)">
<title>DFA</title>
<polygon fill="#ffffff" stroke="transparent" points="-4,4 -4,-53.383 224.2737,-53.383 224.2737,4 -4,4"/>
<!-- B -->
<g id="node1" class="node">
<title>B</title>
<ellipse fill="none" stroke="#000000" cx="110.1368" cy="-24.6915" rx="20.8533" ry="20.8533"/>
<ellipse fill="none" stroke="#000000" cx="110.1368" cy="-24.6915" rx="24.8845" ry="24.8845"/>
<text text-anchor="middle" x="110.1368" y="-20.4915" font-family="Times,serif" font-size="14.00" fill="#000000">B'</text>
</g>
<!-- D -->
<g id="node3" class="node">
<title>D</title>
<ellipse fill="none" stroke="#000000" cx="199.051" cy="-24.6915" rx="21.4477" ry="21.4477"/>
<text text-anchor="middle" x="199.051" y="-20.4915" font-family="Times,serif" font-size="14.00" fill="#000000">D'</text>
</g>
<!-- B&#45;&gt;D -->
<g id="edge3" class="edge">
<title>B-&gt;D</title>
<path fill="none" stroke="#000000" d="M134.9044,-24.6915C145.0015,-24.6915 156.7967,-24.6915 167.4993,-24.6915"/>
<polygon fill="#000000" stroke="#000000" points="167.7344,-28.1916 177.7344,-24.6915 167.7344,-21.1916 167.7344,-28.1916"/>
<text text-anchor="middle" x="156.3283" y="-28.8915" font-family="Times,serif" font-size="14.00" fill="#000000">a</text>
</g>
<!-- B&#45;&gt;D -->
<g id="edge4" class="edge">
<title>B-&gt;D</title>
<path fill="none" stroke="#000000" d="M129.9683,-9.9516C138.8817,-5.0283 149.6635,-1.3631 159.8283,-3.8915 163.9516,-4.9172 168.1178,-6.4656 172.1172,-8.264"/>
<polygon fill="#000000" stroke="#000000" points="170.5454,-11.3912 181.048,-12.7859 173.7075,-5.146 170.5454,-11.3912"/>
<text text-anchor="middle" x="156.3283" y="-7.8915" font-family="Times,serif" font-size="14.00" fill="#000000">b</text>
</g>
<!-- A -->
<g id="node2" class="node">
<title>A</title>
<ellipse fill="none" stroke="#000000" cx="21.2227" cy="-24.6915" rx="21.4477" ry="21.4477"/>
<text text-anchor="middle" x="21.2227" y="-20.4915" font-family="Times,serif" font-size="14.00" fill="#000000">A'</text>
</g>
<!-- A&#45;&gt;B -->
<g id="edge1" class="edge">
<title>A-&gt;B</title>
<path fill="none" stroke="#000000" d="M42.7463,-24.6915C52.4833,-24.6915 64.2415,-24.6915 75.1918,-24.6915"/>
<polygon fill="#000000" stroke="#000000" points="75.3508,-28.1916 85.3508,-24.6915 75.3508,-21.1916 75.3508,-28.1916"/>
<text text-anchor="middle" x="63.9453" y="-28.8915" font-family="Times,serif" font-size="14.00" fill="#000000">a</text>
</g>
<!-- A&#45;&gt;B -->
<g id="edge2" class="edge">
<title>A-&gt;B</title>
<path fill="none" stroke="#000000" d="M39.2257,-12.7859C45.6492,-9.1904 53.1151,-5.7149 60.4453,-3.8915 67.2748,-2.1927 74.3828,-3.2898 81.0155,-5.6859"/>
<polygon fill="#000000" stroke="#000000" points="79.7571,-8.9594 90.3054,-9.9516 82.6782,-2.598 79.7571,-8.9594"/>
<text text-anchor="middle" x="63.9453" y="-7.8915" font-family="Times,serif" font-size="14.00" fill="#000000">b</text>
</g>
</g>
</svg>